<svg width="20" height="20" viewBox="0 0 20 20" fill="none" xmlns="http://www.w3.org/2000/svg">
<g clip-path="url(#clip0_21_19)">
<path d="M9.99984 19.3333C8.77417 19.3333 7.5605 19.0919 6.42813 18.6228C5.29575 18.1538 4.26685 17.4663 3.40017 16.5996C2.53349 15.7329 1.84601 14.704 1.37696 13.5717C0.907918 12.4393 0.666504 11.2256 0.666504 9.99996C0.666504 8.77429 0.907918 7.56062 1.37696 6.42825C1.84601 5.29588 2.53349 4.26698 3.40017 3.4003C4.26685 2.53362 5.29575 1.84613 6.42813 1.37708C7.5605 0.90804 8.77417 0.666626 9.99984 0.666626C12.4752 0.666626 14.8492 1.64996 16.5995 3.4003C18.3498 5.15064 19.3332 7.52461 19.3332 9.99996C19.3332 12.4753 18.3498 14.8493 16.5995 16.5996C14.8492 18.35 12.4752 19.3333 9.99984 19.3333ZM9.99984 19.3333V8.66663C9.99984 7.95938 10.2808 7.2811 10.7809 6.78101C11.281 6.28091 11.9593 5.99996 12.6665 5.99996H13.3332M6.6665 11.3333H13.3332" stroke="black"/>
</g>
<defs>
<clipPath id="clip0_21_19">
<rect width="20" height="20" fill="white"/>
</clipPath>
</defs>
</svg>
