<svg width="20" height="20" viewBox="0 0 20 20" fill="none" xmlns="http://www.w3.org/2000/svg">
<path d="M2.35789 9.75178C1.94169 9.28752 1.61194 8.73488 1.38784 8.12607C1.16375 7.51725 1.0498 6.86445 1.05263 6.20569C1.05263 4.87334 1.52397 3.59556 2.36294 2.65344C3.20192 1.71133 4.33982 1.18205 5.52632 1.18205C7.18947 1.18205 8.64211 2.1986 9.41053 3.7116H10.5895C10.9801 2.94217 11.5454 2.30272 12.2277 1.85838C12.91 1.41404 13.6849 1.18068 14.4737 1.18205C15.6602 1.18205 16.7981 1.71133 17.6371 2.65344C18.476 3.59556 18.9474 4.87334 18.9474 6.20569C18.9474 7.58867 18.4211 8.86526 17.6421 9.75178L10 18.3215L2.35789 9.75178ZM18.3789 10.591C19.3789 9.45628 20 7.91963 20 6.20569C20 4.55984 19.4178 2.98141 18.3814 1.81762C17.345 0.653831 15.9394 2.13381e-05 14.4737 2.13381e-05C12.6316 2.13381e-05 11 1.00475 10 2.56503C9.48958 1.76893 8.81748 1.12096 8.03945 0.674877C7.26142 0.22879 6.39989 -0.00255828 5.52632 2.13381e-05C4.06065 2.13381e-05 2.65501 0.653831 1.61862 1.81762C0.582235 2.98141 0 4.55984 0 6.20569C0 7.91963 0.621053 9.45628 1.62105 10.591L10 20L18.3789 10.591Z" fill="#1D1D1D"/>
</svg>
