<svg width="19" height="19" viewBox="0 0 19 19" fill="none" xmlns="http://www.w3.org/2000/svg">
<path d="M15.5454 18.063H2.58061C1.9129 18.063 1.27253 17.7977 0.800383 17.3256C0.328237 16.8534 0.0629883 16.2131 0.0629883 15.5454V2.58061C0.0629883 1.9129 0.328237 1.27253 0.800383 0.800383C1.27253 0.328237 1.9129 0.0629883 2.58061 0.0629883H15.5454C16.2131 0.0629883 16.8534 0.328237 17.3256 0.800383C17.7977 1.27253 18.063 1.9129 18.063 2.58061V15.5454C18.063 16.2131 17.7977 16.8534 17.3256 17.3256C16.8534 17.7977 16.2131 18.063 15.5454 18.063ZM2.58061 1.07004C2.17998 1.07004 1.79576 1.22919 1.51247 1.51247C1.22919 1.79576 1.07004 2.17998 1.07004 2.58061V15.5454C1.07004 15.946 1.22919 16.3302 1.51247 16.6135C1.79576 16.8968 2.17998 17.0559 2.58061 17.0559H15.5454C15.946 17.0559 16.3302 16.8968 16.6135 16.6135C16.8968 16.3302 17.0559 15.946 17.0559 15.5454V2.58061C17.0559 2.17998 16.8968 1.79576 16.6135 1.51247C16.3302 1.22919 15.946 1.07004 15.5454 1.07004H2.58061Z" fill="black"/>
<path d="M9.06328 13.6895C8.14824 13.6885 7.25403 13.4162 6.4937 12.9071C5.73337 12.398 5.14105 11.6749 4.79162 10.8292C4.44219 9.9835 4.35132 9.05319 4.53052 8.15587C4.70972 7.25855 5.15093 6.4345 5.79839 5.78789C6.44584 5.14128 7.27047 4.70115 8.16802 4.52312C9.06557 4.34509 9.99576 4.43717 10.841 4.7877C11.6862 5.13824 12.4086 5.73151 12.9167 6.4925C13.4248 7.25349 13.6959 8.14805 13.6957 9.06309C13.6941 10.2906 13.2053 11.4674 12.3368 12.3348C11.4682 13.2022 10.2908 13.6895 9.06328 13.6895ZM9.06328 5.43771C8.34767 5.43871 7.64841 5.65176 7.05382 6.04995C6.45923 6.44814 5.99598 7.01361 5.72259 7.67493C5.4492 8.33626 5.37793 9.06377 5.51778 9.76558C5.65763 10.4674 6.00234 11.112 6.50835 11.618C7.01436 12.124 7.65898 12.4687 8.36079 12.6086C9.06259 12.7484 9.79011 12.6772 10.4514 12.4038C11.1128 12.1304 11.6782 11.6671 12.0764 11.0725C12.4746 10.478 12.6877 9.7787 12.6887 9.06309C12.6887 8.10158 12.3067 7.17945 11.6268 6.49956C10.9469 5.81967 10.0248 5.43771 9.06328 5.43771Z" fill="black"/>
<path d="M14.2999 4.93908C14.8978 4.93908 15.3824 4.45439 15.3824 3.8565C15.3824 3.25861 14.8978 2.77393 14.2999 2.77393C13.702 2.77393 13.2173 3.25861 13.2173 3.8565C13.2173 4.45439 13.702 4.93908 14.2999 4.93908Z" fill="black"/>
</svg>
