<svg width="19" height="19" viewBox="0 0 19 19" fill="none" xmlns="http://www.w3.org/2000/svg">
<path d="M18.0324 18.769L11.1524 11.8898C10.603 12.3578 9.97126 12.72 9.25711 12.9763C8.54295 13.2326 7.82514 13.3608 7.10366 13.3608C5.34427 13.3608 3.85517 12.7518 2.63634 11.5339C1.41752 10.3159 0.808105 8.82739 0.808105 7.06822C0.808105 5.30905 1.41678 3.81976 2.63414 2.60035C3.8515 1.38095 5.33988 0.77051 7.09926 0.769046C8.85865 0.767581 10.3485 1.37692 11.5688 2.59706C12.7891 3.8172 13.3992 5.30649 13.3992 7.06492C13.3992 7.82806 13.2641 8.56666 12.9938 9.28073C12.7235 9.9948 12.3683 10.6056 11.928 11.1131L18.8081 17.9913L18.0324 18.769ZM7.10475 12.2611C8.56236 12.2611 9.79291 11.7595 10.7964 10.7561C11.7999 9.75275 12.3016 8.52199 12.3016 7.06383C12.3016 5.60566 11.7999 4.37527 10.7964 3.37265C9.79291 2.37002 8.56236 1.86834 7.10475 1.86761C5.64715 1.86688 4.41624 2.36856 3.41202 3.37265C2.40781 4.37673 1.90607 5.60713 1.90681 7.06383C1.90754 8.52052 2.40928 9.75092 3.41202 10.755C4.41477 11.7591 5.64532 12.2608 7.10366 12.26" fill="black"/>
</svg>
