<svg width="22" height="20" viewBox="0 0 22 20" fill="none" xmlns="http://www.w3.org/2000/svg">
<path d="M10.9848 13.4082L14.2268 17.0942C15.4268 18.4592 16.0278 19.1422 16.6568 18.9752C17.2848 18.8092 17.5008 17.9112 17.9318 16.1142L20.3218 6.14627C20.9868 3.37828 21.3188 1.99528 20.5808 1.31228C19.8428 0.629284 18.5638 1.13728 16.0058 2.15228L4.13975 6.86527C2.09375 7.67826 1.07074 8.08426 1.00574 8.78226C0.998086 8.85339 0.998086 8.92513 1.00574 8.99626C1.06874 9.69526 2.08975 10.1043 4.13375 10.9233C5.05876 11.2943 5.52176 11.4803 5.85376 11.8353C5.8911 11.8753 5.9271 11.9166 5.96176 11.9593C6.26776 12.3392 6.39777 12.8392 6.65877 13.8352L7.14777 15.7022C7.40077 16.6722 7.52777 17.1582 7.86077 17.2242C8.19377 17.2902 8.48277 16.8882 9.06178 16.0832L10.9848 13.4082ZM10.9848 13.4082L10.6678 13.0782C10.3058 12.7002 10.1248 12.5122 10.1248 12.2782C10.1248 12.0443 10.3048 11.8553 10.6678 11.4783L14.2408 7.75426" stroke="black" stroke-linecap="round" stroke-linejoin="round"/>
</svg>
